<svg width="500" height="500" viewBox="0 0 500 500" fill="none" xmlns="http://www.w3.org/2000/svg">
<path d="M255.503 0C288.277 0 317.383 5.14432 342.82 15.433C368.257 25.2317 388.312 39.6848 402.987 58.7923C417.663 77.8998 425 100.927 425 127.873C425 157.269 418.641 181.521 405.922 200.629C393.693 219.736 377.062 234.434 356.027 244.723C334.993 255.012 311.758 261.381 286.321 263.831L284.12 338.056H208.543V227.085C256.481 221.206 290.479 211.407 310.535 197.689C331.08 183.481 341.352 163.639 341.352 138.162C341.352 117.095 333.77 100.437 318.606 88.1885C303.931 75.4502 281.185 69.081 250.367 69.081C221.506 69.081 198.026 77.1649 179.927 93.3328C161.827 109.501 151.066 132.038 147.642 160.944L75 127.873C83.3159 90.1482 102.638 59.5272 132.966 36.0103C163.784 12.0034 204.63 0 255.503 0ZM246.698 394.644C263.33 394.644 276.537 399.543 286.321 409.342C296.104 418.65 300.996 431.144 300.996 446.822C300.996 462.99 296.104 475.728 286.321 485.037C276.537 494.346 263.33 499 246.698 499C229.577 499 216.125 494.346 206.342 485.037C196.558 475.728 191.667 462.99 191.667 446.822C191.667 431.144 196.558 418.65 206.342 409.342C216.125 399.543 229.577 394.644 246.698 394.644Z" fill="black"/>
</svg>
